<?xml version="1.0" encoding="iso-8859-1"?>
<!-- Generator: Adobe Illustrator 19.0.0, SVG Export Plug-In . SVG Version: 6.00 Build 0)  -->
<svg version="1.1" id="Layer_1" xmlns="http://www.w3.org/2000/svg" xmlns:xlink="http://www.w3.org/1999/xlink" x="0px" y="0px"
	 viewBox="0 0 504.123 504.123" style="enable-background:new 0 0 504.123 504.123;" xml:space="preserve">
<path style="fill:#B4E7ED;" d="M201.232,183.595c1.142-15.439,2.631-29.948,4.427-43.473c-5.23-4.001-10.342-7.806-15.344-11.398
	c-2.458,16.975-4.419,35.596-5.758,55.824C189.984,184.186,195.552,183.871,201.232,183.595z"/>
<path style="fill:#CBF2F4;" d="M199.893,298.378c-5.908-5.947-11.65-11.831-17.14-17.621c0.197,7.578,0.488,14.935,0.835,22.142
	c5.419,0.402,10.917,0.772,16.565,1.071C200.05,302.135,199.987,300.245,199.893,298.378z"/>
<path style="fill:#B4E7ED;" d="M319.575,184.556c-1.347-20.228-3.3-38.857-5.758-55.824c-5.002,3.592-10.122,7.389-15.344,11.39
	c1.796,13.525,3.293,28.042,4.427,43.481C308.571,183.879,314.14,184.194,319.575,184.556z"/>
<path style="fill:#69C7E0;" d="M252.062,487.723c-14.509,0-32.736-38.14-43.678-105.133c-5.136,3.828-10.185,7.467-15.171,10.949
	c13.036,72.972,36.037,110.584,58.848,110.584s45.804-37.604,58.848-110.592c-4.986-3.474-10.027-7.113-15.171-10.949
	C284.798,449.583,266.571,487.723,252.062,487.723z"/>
<g>
	<path style="fill:#DCF4F4;" d="M199.05,230.116c-5.687,5.939-11.24,11.894-16.628,17.841c-0.008,1.378-0.032,2.718-0.032,4.104
		c0,1.378,0.024,2.71,0.032,4.072c5.333,5.876,10.862,11.815,16.628,17.841c-0.165-7.168-0.26-14.446-0.26-21.914
		C198.782,244.586,198.884,237.292,199.05,230.116z"/>
	<path style="fill:#DCF4F4;" d="M305.341,252.062c0,7.467-0.102,14.753-0.26,21.921c5.766-6.034,11.303-11.973,16.628-17.841
		c0.008-1.371,0.032-2.702,0.032-4.08c0-1.378-0.024-2.702-0.032-4.072c-5.333-5.868-10.862-11.815-16.628-17.841
		C305.239,237.316,305.341,244.594,305.341,252.062z"/>
</g>
<g>
	<path style="fill:#CBF2F4;" d="M303.97,303.97c5.648-0.307,11.138-0.677,16.565-1.079c0.347-7.2,0.638-14.557,0.835-22.134
		c-5.498,5.782-11.232,11.666-17.14,17.621C304.136,300.245,304.073,302.135,303.97,303.97z"/>
	<path style="fill:#CBF2F4;" d="M304.23,205.745c5.908,5.955,11.65,11.831,17.14,17.621c-0.197-7.585-0.488-14.935-0.835-22.142
		c-5.419-0.402-10.917-0.772-16.565-1.071C304.073,201.996,304.136,203.886,304.23,205.745z"/>
</g>
<path style="fill:#69C7E0;" d="M252.062,16.4c14.509,0,32.736,38.14,43.678,105.133c5.136-3.828,10.185-7.467,15.171-10.949
	C297.866,37.604,274.873,0,252.062,0s-45.812,37.604-58.848,110.584c4.986,3.482,10.027,7.121,15.171,10.949
	C219.325,54.54,237.552,16.4,252.062,16.4z"/>
<path style="fill:#CBF2F4;" d="M200.153,200.153c-5.648,0.307-11.138,0.677-16.565,1.079c-0.347,7.239-0.638,14.643-0.835,22.268
	c5.585-5.923,11.296-11.831,17.14-17.715C199.971,203.91,200.05,202.004,200.153,200.153z"/>
<g>
	<path style="fill:#B4E7ED;" d="M302.891,320.528c-1.142,15.439-2.631,29.948-4.419,43.473c5.215,4.001,10.335,7.798,15.336,11.39
		c2.458-16.967,4.419-35.588,5.758-55.816C314.14,319.937,308.571,320.252,302.891,320.528z"/>
	<path style="fill:#B4E7ED;" d="M184.548,319.575c1.347,20.228,3.3,38.849,5.758,55.816c5.002-3.592,10.114-7.389,15.344-11.39
		c-1.796-13.525-3.285-28.034-4.427-43.473C195.552,320.252,189.984,319.937,184.548,319.575z"/>
	<path style="fill:#B4E7ED;" d="M336.384,239.561c3.828,4.222,7.554,8.389,11.154,12.501c13.367-15.281,25.175-29.854,35.446-43.615
		c-6.073-0.992-12.414-1.93-18.968-2.796C355.714,216.497,346.506,227.816,336.384,239.561z"/>
</g>
<g>
	<path style="fill:#80D9E8;" d="M408.615,82.377c4.679,0,8.074,1.024,10.09,3.04c10.232,10.232-3.899,50.003-43.307,104.897
		c6.396,0.922,12.619,1.914,18.542,2.977c42.189-60.644,52.452-103.361,36.352-119.461c-5.207-5.207-12.501-7.845-21.685-7.845
		c-22.52,0-57.415,16.447-97.705,44.599c1.032,5.813,2.001,11.878,2.907,18.141C356.368,98.186,390.428,82.377,408.615,82.377z"/>
	<path style="fill:#80D9E8;" d="M95.516,421.738c-4.679,0-8.074-1.024-10.09-3.04c-6.223-6.223-4.458-28.617,21.008-71.247
		c6.428-10.76,13.942-22.04,22.276-33.642c-6.215-0.898-12.233-1.859-17.999-2.891c-6.727,9.641-12.95,19.07-18.353,28.128
		c-27.231,45.6-33.469,76.296-18.527,91.238c5.207,5.199,12.501,7.838,21.685,7.838c22.512,0,57.407-16.447,97.697-44.599
		c-1.032-5.813-2.001-11.871-2.907-18.141C147.763,405.937,113.703,421.738,95.516,421.738z"/>
</g>
<path style="fill:#B4E7ED;" d="M239.695,336.305c-11.752,10.138-23.111,19.338-34.036,27.703c0.843,6.412,1.764,12.627,2.733,18.582
	c14.123-10.531,28.751-22.363,43.678-35.312C247.958,343.71,243.83,340.031,239.695,336.305z"/>
<path style="fill:#CBF2F4;" d="M321.709,256.142c-0.032,8.405-0.142,16.628-0.339,24.623c5.199-5.482,10.185-10.87,15.013-16.195
	c-3.576-4.143-7.105-8.271-10.917-12.509C324.269,253.401,322.938,254.795,321.709,256.142z"/>
<path style="fill:#DCF4F4;" d="M274.046,305.081c8.31-0.181,16.416-0.473,24.308-0.843c1-0.985,1.985-1.922,2.985-2.914
	c0.985-0.985,1.914-1.961,2.891-2.946c0.386-7.924,0.662-16.061,0.843-24.403c-4.986,5.207-10.027,10.445-15.336,15.754
	C284.459,295.014,279.229,300.119,274.046,305.081z"/>
<g>
	<path style="fill:#CBF2F4;" d="M182.414,247.958c0.032-8.35,0.142-16.518,0.339-24.458c-5.081,5.388-10.075,10.776-14.927,16.163
		c3.56,4.12,7.073,8.231,10.878,12.453C179.948,250.73,181.153,249.344,182.414,247.958z"/>
	<path style="fill:#CBF2F4;" d="M252.062,325.388c4.167,3.734,8.302,7.396,12.383,10.917c5.388-4.852,10.776-9.83,16.203-14.943
		c-7.94,0.205-16.108,0.315-24.458,0.347C254.803,322.962,253.448,324.143,252.062,325.388z"/>
	<path style="fill:#CBF2F4;" d="M252.062,178.743c-4.167-3.734-8.302-7.396-12.383-10.917c-5.38,4.844-10.776,9.823-16.203,14.935
		c7.948-0.205,16.108-0.315,24.458-0.339C249.32,181.161,250.675,179.98,252.062,178.743z"/>
</g>
<path style="fill:#DCF4F4;" d="M230.077,199.05c-8.31,0.181-16.415,0.465-24.308,0.843c-0.992,0.985-1.985,1.914-2.97,2.907
	c-0.992,0.985-1.922,1.993-2.907,2.985c-0.386,7.901-0.662,16.014-0.843,24.332c5.018-5.254,10.122-10.508,15.344-15.73
	C219.664,209.117,224.894,204.004,230.077,199.05z"/>
<g>
	<path style="fill:#B4E7ED;" d="M264.436,167.826c11.745-10.138,23.103-19.338,34.028-27.703c-0.843-6.412-1.764-12.627-2.733-18.59
		c-14.123,10.539-28.759,22.37-43.678,35.32C256.165,160.414,260.293,164.092,264.436,167.826z"/>
	<path style="fill:#B4E7ED;" d="M156.743,252.243c-12.768,14.738-24.497,29.31-35.084,43.52c5.916,0.969,12.075,1.867,18.432,2.71
		c8.523-11.122,17.77-22.465,27.64-33.918C163.958,260.403,160.295,256.299,156.743,252.243z"/>
</g>
<g>
	<path style="fill:#CBF2F4;" d="M200.153,303.97c0.307,5.648,0.677,11.138,1.079,16.557c7.239,0.347,14.627,0.638,22.26,0.835
		c-5.9-5.569-11.808-11.264-17.723-17.124C203.91,304.152,202.004,304.073,200.153,303.97z"/>
	<path style="fill:#CBF2F4;" d="M205.769,199.893c5.908-5.868,11.815-11.563,17.707-17.132c-7.617,0.197-15.006,0.488-22.244,0.835
		c-0.402,5.419-0.772,10.917-1.079,16.557C202.004,200.058,203.902,199.979,205.769,199.893z"/>
	<path style="fill:#CBF2F4;" d="M303.97,200.153c-0.307-5.648-0.677-11.138-1.079-16.557c-7.239-0.347-14.627-0.638-22.252-0.835
		c5.9,5.569,11.8,11.264,17.707,17.124C300.213,199.979,302.119,200.05,303.97,200.153z"/>
</g>
<path style="fill:#DCF4F4;" d="M252.03,313.541v-8.2c-7.475,0-14.769-0.102-21.937-0.26c6.018,5.758,11.965,11.28,17.849,16.62
	c1.378,0,2.71,0.024,4.096,0.024h0.024c1.402,0,2.741-0.024,4.12-0.024c5.892-5.348,11.839-10.862,17.865-16.62
	c-7.192,0.158-14.494,0.26-21.984,0.26L252.03,313.541z"/>
<path style="fill:#69C7E0;" d="M504.123,252.062c0-22.772-37.455-45.718-110.175-58.77c-3.434,4.931-7.097,9.996-10.965,15.155
	c66.757,10.949,104.739,29.137,104.747,43.615c-0.008,14.478-37.99,32.666-104.747,43.615c3.86,5.159,7.538,10.224,10.973,15.155
	C466.66,297.787,504.123,274.834,504.123,252.062z"/>
<g>
	<path style="fill:#B4E7ED;" d="M320.528,201.224c15.439,1.134,29.964,2.631,43.488,4.427c4.017-5.238,7.798-10.342,11.382-15.336
		c-16.967-2.458-35.588-4.411-55.824-5.758C319.937,189.991,320.26,195.552,320.528,201.224z"/>
	<path style="fill:#B4E7ED;" d="M183.595,302.899c-15.455-1.142-29.972-2.631-43.496-4.427c-3.97,5.175-7.735,10.287-11.382,15.344
		c16.975,2.458,35.604,4.411,55.84,5.758C184.186,314.132,183.863,308.571,183.595,302.899z"/>
</g>
<path style="fill:#DCF4F4;" d="M274.03,199.042c-6.018-5.758-11.965-11.28-17.849-16.62c-1.402,0-2.773-0.024-4.175-0.024
	c-1.378,0-2.71,0.024-4.072,0.024c-5.892,5.341-11.839,10.862-17.865,16.628c7.215-0.165,14.533-0.26,22.032-0.26
	C259.584,198.782,266.862,198.884,274.03,199.042z"/>
<path style="fill:#69C7E0;" d="M16.4,252.062c0-14.478,37.975-32.658,104.739-43.607c-3.86-5.167-7.538-10.232-10.973-15.163
	C37.463,206.336,0,229.289,0,252.062c0,22.827,37.644,45.828,110.71,58.864c3.482-4.994,7.152-10.043,10.957-15.155
	C54.587,284.83,16.4,266.579,16.4,252.062z"/>
<path style="fill:#CBF2F4;" d="M298.354,304.238c-5.908,5.86-11.815,11.555-17.707,17.124c7.617-0.197,15.006-0.488,22.244-0.835
	c0.402-5.419,0.772-10.91,1.079-16.557C302.119,304.073,300.229,304.144,298.354,304.238z"/>
<g>
	<path style="fill:#B4E7ED;" d="M184.548,184.548c-20.236,1.347-38.857,3.3-55.824,5.758c3.584,4.994,7.381,10.106,11.382,15.344
		c13.525-1.796,28.05-3.285,43.488-4.427C183.863,195.552,184.186,189.991,184.548,184.548z"/>
	<path style="fill:#B4E7ED;" d="M319.575,319.575c20.236-1.347,38.857-3.3,55.824-5.758c-3.584-4.994-7.373-10.106-11.382-15.344
		c-13.525,1.796-28.05,3.285-43.488,4.427C320.26,308.571,319.937,314.132,319.575,319.575z"/>
	<path style="fill:#B4E7ED;" d="M167.834,239.663c-10.153-11.776-19.401-23.135-27.727-34.005
		c-6.554,0.866-12.895,1.804-18.968,2.796c10.311,13.808,22.166,28.436,35.612,43.796
		C160.366,248.06,164.053,243.862,167.834,239.663z"/>
</g>
<g>
	<path style="fill:#CBF2F4;" d="M247.942,321.709c-8.35-0.032-16.51-0.142-24.45-0.339c5.419,5.112,10.815,10.09,16.203,14.935
		c4.08-3.521,8.216-7.192,12.367-10.917C250.683,324.143,249.32,322.97,247.942,321.709z"/>
	<path style="fill:#CBF2F4;" d="M321.709,247.989c1.229,1.347,2.56,2.733,3.765,4.072c3.805-4.238,7.341-8.365,10.917-12.509
		c-4.829-5.325-9.815-10.713-15.013-16.187C321.568,231.361,321.678,239.584,321.709,247.989z"/>
</g>
<path style="fill:#DCF4F4;" d="M305.073,230.156c-0.173-8.35-0.465-16.479-0.843-24.411c-0.977-0.985-1.914-1.953-2.907-2.946
	c-0.992-0.993-1.985-1.93-2.977-2.914c-7.901-0.378-15.998-0.662-24.316-0.843c5.191,4.962,10.429,10.075,15.699,15.352
	C295.046,219.711,300.095,224.941,305.073,230.156z"/>
<path style="fill:#80D9E8;" d="M418.706,418.706c-2.017,2.009-5.419,3.033-10.082,3.033c-18.188,0-52.255-15.801-94.807-46.348
	c-0.906,6.262-1.867,12.327-2.907,18.141c40.306,28.152,75.201,44.607,97.713,44.607c9.177,0,16.471-2.631,21.677-7.838
	c16.1-16.108,5.837-58.833-36.344-119.469c-5.939,1.063-12.154,2.056-18.55,2.985C414.815,368.703,428.938,408.474,418.706,418.706z
	"/>
<path style="fill:#DCF4F4;" d="M199.05,273.975c0.173,8.342,0.465,16.479,0.843,24.403c0.977,0.985,1.914,1.961,2.907,2.954
	c0.985,0.992,1.985,1.93,2.97,2.914c7.901,0.378,16.006,0.662,24.324,0.843c-5.199-4.962-10.429-10.075-15.699-15.344
	C209.077,284.42,204.028,279.19,199.05,273.975z"/>
<path style="fill:#CBF2F4;" d="M256.181,182.422c8.35,0.032,16.518,0.142,24.45,0.339c-5.419-5.112-10.823-10.09-16.203-14.935
	c-4.088,3.521-8.216,7.192-12.375,10.917C253.44,179.98,254.803,181.161,256.181,182.422z"/>
<path style="fill:#80D9E8;" d="M85.425,85.417c2.016-2.009,5.419-3.033,10.082-3.033c18.188,0,52.256,15.801,94.799,46.34
	c0.906-6.262,1.867-12.32,2.907-18.141c-40.29-28.152-75.185-44.599-97.705-44.599c-9.177,0-16.471,2.639-21.677,7.838
	c-16.108,16.1-5.845,58.817,36.336,119.461c5.939-1.063,12.146-2.056,18.55-2.977C89.309,135.42,75.201,95.657,85.425,85.417z"/>
<path style="fill:#B4E7ED;" d="M252.062,156.853c-14.927-12.95-29.554-24.781-43.678-35.312c-0.969,5.963-1.883,12.17-2.733,18.582
	c10.925,8.365,22.284,17.558,34.02,27.703C243.814,164.092,247.958,160.414,252.062,156.853z"/>
<path style="fill:#CBF2F4;" d="M178.712,252.117c-3.726,4.151-7.404,8.31-10.98,12.446c4.836,5.325,9.823,10.713,15.021,16.203
	c-0.197-7.995-0.307-16.219-0.339-24.623C181.201,254.811,179.893,253.44,178.712,252.117z"/>
<g>
	<path style="fill:#B4E7ED;" d="M252.062,347.27c14.927,12.95,29.554,24.781,43.678,35.312c0.969-5.963,1.883-12.17,2.741-18.582
		c-10.925-8.365-22.284-17.558-34.028-27.695C260.309,340.031,256.165,343.71,252.062,347.27z"/>
	<path style="fill:#B4E7ED;" d="M336.384,264.57c10.122,11.737,19.322,23.056,27.632,33.902c6.554-0.866,12.895-1.804,18.968-2.796
		c-10.272-13.761-22.079-28.325-35.446-43.615C343.938,256.181,340.212,260.356,336.384,264.57z"/>
</g>
<circle style="fill:#FFCE00;" cx="252.062" cy="252.062" r="58.817"/>
<path id="SVGCleanerId_0" style="fill:#FFB600;" d="M210.464,210.471c22.969-22.969,60.219-22.969,83.188,0
	c22.969,22.977,22.969,60.219,0,83.188"/>
<g>
	<circle style="fill:#FFCE00;" cx="252.062" cy="252.062" r="58.817"/>
	<circle style="fill:#FFCE00;" cx="252.062" cy="252.062" r="58.817"/>
</g>
<path style="fill:#FFB600;" d="M287.413,205.147c7.444,9.846,11.91,22.071,11.91,35.36c0,32.484-26.34,58.825-58.825,58.825
	c-13.296,0-25.513-4.466-35.36-11.902c10.736,14.218,27.727,23.457,46.923,23.457c32.477,0,58.817-26.333,58.817-58.817
	C310.879,232.873,301.647,215.883,287.413,205.147z"/>
<g>
	<path id="SVGCleanerId_0_1_" style="fill:#FFB600;" d="M210.464,210.471c22.969-22.969,60.219-22.969,83.188,0
		c22.969,22.977,22.969,60.219,0,83.188"/>
</g>
<path style="fill:#FFA300;" d="M310.626,246.926c-0.016-0.299-0.047-0.591-0.079-0.89c-0.165-1.67-0.402-3.34-0.725-4.994
	c-0.039-0.221-0.087-0.441-0.142-0.662c-0.299-1.505-0.67-2.993-1.095-4.466c-0.087-0.276-0.142-0.559-0.228-0.835
	c-0.433-1.457-0.953-2.891-1.497-4.317c-0.221-0.544-0.449-1.095-0.677-1.631c-0.52-1.252-1.095-2.489-1.709-3.71
	c-0.362-0.709-0.764-1.402-1.15-2.087c-0.362-0.638-0.733-1.26-1.126-1.883c-0.78-1.268-1.591-2.505-2.458-3.702
	c-0.291-0.402-0.575-0.803-0.882-1.205c-1.174-1.544-2.434-3.033-3.765-4.45c-0.087-0.102-0.173-0.197-0.26-0.299
	c-2.284-2.418-4.758-4.64-7.42-6.64c7.444,9.846,11.91,22.071,11.91,35.36c0,16.242-6.577,30.948-17.235,41.59l11.555,11.555
	c0.079-0.079,0.158-0.165,0.213-0.244c1.308-1.315,2.536-2.662,3.679-4.064c0.551-0.67,1.048-1.394,1.568-2.087
	c0.63-0.843,1.276-1.678,1.859-2.544c0.536-0.811,1.016-1.654,1.52-2.489c0.48-0.819,1-1.623,1.441-2.45
	c0.449-0.827,0.835-1.701,1.237-2.56c0.417-0.89,0.859-1.764,1.229-2.662c0.339-0.811,0.607-1.646,0.906-2.473
	c0.362-0.985,0.74-1.969,1.032-2.962c0.252-0.796,0.425-1.623,0.63-2.426c0.276-1.048,0.567-2.103,0.772-3.159
	c0.173-0.882,0.276-1.788,0.417-2.686c0.158-1,0.331-2.001,0.433-3.009c0.158-1.489,0.197-3.009,0.228-4.529
	C310.855,251.171,310.815,249.045,310.626,246.926z"/>
<path style="fill:#FFE000;" d="M193.245,252.062c0-32.492,26.325-58.825,58.817-58.825"/>
<g>
	<circle style="fill:#FFEB76;" cx="215.804" cy="260.915" r="6.853"/>
	<circle style="fill:#FFEB76;" cx="225.674" cy="238.639" r="0.851"/>
	<circle style="fill:#FFEB76;" cx="249.462" cy="274.432" r="4.923"/>
</g>
<g>
	<circle style="fill:#FFCE00;" cx="264.192" cy="220.656" r="7.704"/>
	<circle style="fill:#FFCE00;" cx="269.989" cy="246.138" r="2.355"/>
	<circle style="fill:#FFCE00;" cx="286.043" cy="239.498" r="4.285"/>
	<circle style="fill:#FFCE00;" cx="296.33" cy="259.198" r="2.568"/>
</g>
<circle style="fill:#D85039;" cx="200.862" cy="129.969" r="26.915"/>
<path style="fill:#EA5449;" d="M200.893,156.885c-14.864,0-26.908-12.052-26.908-26.915"/>
<path style="fill:#BC311B;" d="M181.862,110.939c10.508-10.508,27.553-10.508,38.061,0s10.508,27.561,0,38.069"/>
<path style="fill:#EF6250;" d="M173.985,129.969c0-14.864,12.044-26.915,26.908-26.915"/>
<path style="fill:#AD2112;" d="M227.816,129.969c0,14.864-12.06,26.915-26.923,26.915"/>
<path style="fill:#C43A2C;" d="M200.893,103.054c14.864,0,26.923,12.052,26.923,26.915"/>
<circle style="fill:#80D9E8;" cx="355.816" cy="355.777" r="17.723"/>
<path style="fill:#B4E7ED;" d="M355.816,373.5c-9.791,0-17.723-7.932-17.723-17.723"/>
<path style="fill:#69C7E0;" d="M343.276,343.237c6.924-6.916,18.148-6.924,25.072,0s6.924,18.148,0,25.072"/>
<path style="fill:#B4E7ED;" d="M338.093,355.777c0-9.791,7.932-17.723,17.723-17.723"/>
<path style="fill:#52BEDB;" d="M373.539,355.777c0,9.791-7.94,17.723-17.723,17.723"/>
<path style="fill:#6BC0DD;" d="M355.816,338.046c9.783,0,17.723,7.932,17.723,17.723"/>
<circle style="fill:#19BF55;" cx="146.117" cy="293.746" r="14.769"/>
<path style="fill:#20C958;" d="M146.093,308.515c-8.16,0-14.769-6.609-14.769-14.769"/>
<path style="fill:#0EAF6E;" d="M135.648,283.294c5.766-5.766,15.124-5.766,20.89,0s5.766,15.124,0,20.897"/>
<path style="fill:#21CC5A;" d="M131.324,293.746c0-8.16,6.609-14.769,14.769-14.769"/>
<path style="fill:#0AA575;" d="M160.863,293.746c0,8.16-6.617,14.769-14.769,14.769"/>
<path style="fill:#15B771;" d="M146.093,278.969c8.153,0,14.769,6.609,14.769,14.769"/>
<g>
</g>
<g>
</g>
<g>
</g>
<g>
</g>
<g>
</g>
<g>
</g>
<g>
</g>
<g>
</g>
<g>
</g>
<g>
</g>
<g>
</g>
<g>
</g>
<g>
</g>
<g>
</g>
<g>
</g>
</svg>
